<?xml version="1.0" encoding="iso-8859-1"?>
<!-- Generator: Adobe Illustrator 19.0.0, SVG Export Plug-In . SVG Version: 6.00 Build 0)  -->
<svg version="1.1" id="Capa_1" xmlns="http://www.w3.org/2000/svg" xmlns:xlink="http://www.w3.org/1999/xlink" x="0px" y="0px"
	 viewBox="0 0 460 460" style="enable-background:new 0 0 460 460;" xml:space="preserve">
<g>
	<polygon style="fill:#FFD23D;" points="360,30 230,30 230,68 250,68 250,108 290,108 290,148 250,148 250,188 230,188 230,318 
		300,318 300,460 360,460 	"/>
	<polygon style="fill:#FFEDAD;" points="160,318 230,318 230,188 210,188 210,148 170,148 170,108 210,108 210,68 230,68 230,30 
		100,30 100,460 160,460 	"/>
	<rect x="230" y="348" style="fill:#D5310E;" width="70" height="112"/>
	<rect x="160" y="348" style="fill:#F46A1A;" width="70" height="112"/>
	<polygon style="fill:#D5310E;" points="210,108 170,108 170,148 210,148 210,188 250,188 250,148 290,148 290,108 250,108 250,68 
		210,68 	"/>
	<rect x="160" y="318" style="fill:#FFFFFF;" width="140" height="30"/>
	<rect x="130" style="fill:#D5310E;" width="200" height="30"/>
	<rect y="30" style="fill:#FF926E;" width="100" height="30"/>
	<rect y="348" style="fill:#FF926E;" width="100" height="112"/>
	<rect y="60" style="fill:#FFF6D6;" width="100" height="36"/>
	<polygon style="fill:#FFF6D6;" points="100,192 50,192 50,162 100,162 100,126 0,126 0,348 100,348 	"/>
	<rect x="360" y="30" style="fill:#F46A1A;" width="100" height="30"/>
	<rect x="360" y="348" style="fill:#F46A1A;" width="100" height="112"/>
	<polygon style="fill:#FFEDAD;" points="360,220 410,220 410,250 360,250 360,286 460,286 460,60 360,60 	"/>
	<rect x="360" y="316" style="fill:#FFEDAD;" width="100" height="32"/>
	<rect y="96" style="fill:#FFFFFF;" width="100" height="30"/>
	<rect x="50" y="162" style="fill:#FFFFFF;" width="50" height="30"/>
	<rect x="360" y="220" style="fill:#FFFFFF;" width="50" height="30"/>
	<rect x="360" y="286" style="fill:#FFFFFF;" width="100" height="30"/>
</g>
<g>
</g>
<g>
</g>
<g>
</g>
<g>
</g>
<g>
</g>
<g>
</g>
<g>
</g>
<g>
</g>
<g>
</g>
<g>
</g>
<g>
</g>
<g>
</g>
<g>
</g>
<g>
</g>
<g>
</g>
</svg>
