<?xml version="1.0" encoding="iso-8859-1"?>
<!-- Generator: Adobe Illustrator 16.0.0, SVG Export Plug-In . SVG Version: 6.00 Build 0)  -->
<!DOCTYPE svg PUBLIC "-//W3C//DTD SVG 1.1//EN" "http://www.w3.org/Graphics/SVG/1.1/DTD/svg11.dtd">
<svg version="1.1" id="Capa_1" xmlns="http://www.w3.org/2000/svg" xmlns:xlink="http://www.w3.org/1999/xlink" x="0px" y="0px"
	 width="31.006px" height="31.006px" viewBox="0 0 31.006 31.006" style="enable-background:new 0 0 31.006 31.006;"
	 xml:space="preserve">
<g>
	<path d="M29.148,20.873c-1.47,2.695-3.899,4.662-6.849,5.529c-1.062,0.313-2.159,0.474-3.258,0.474
		c-1.626,0-3.196-0.354-4.628-0.992c0.505,0.076,1.019,0.121,1.539,0.121c1.001,0,2.002-0.146,2.975-0.433
		c2.69-0.793,4.91-2.586,6.253-5.051c1.341-2.463,1.644-5.3,0.851-7.991c-1.31-4.436-5.447-7.534-10.065-7.534
		c-0.84,0-1.676,0.125-2.498,0.328c0.726-0.403,1.5-0.74,2.329-0.984c1.064-0.314,2.16-0.473,3.259-0.473
		c5.061,0,9.594,3.393,11.024,8.251C30.946,15.066,30.616,18.175,29.148,20.873z M5.142,19.477
		c-2.263-7.669,2.137-15.75,9.805-18.012C16.288,1.07,17.67,0.87,19.053,0.87c0.897,0,1.78,0.093,2.645,0.256
		C19.904,0.404,17.968,0,15.966,0c-1.481,0-2.958,0.214-4.39,0.636C7.605,1.807,4.328,4.454,2.347,8.09
		c-1.981,3.636-2.426,7.826-1.254,11.798c1.931,6.546,8.042,11.118,14.861,11.118c1.479,0,2.957-0.214,4.389-0.636
		c0.904-0.269,1.77-0.62,2.594-1.034c-1.271,0.354-2.58,0.541-3.894,0.541C12.662,29.876,6.946,25.6,5.142,19.477z M14.253,9.563
		v3.813h-3.812v4h3.812v3.812h4v-3.812h3.812v-4h-3.812V9.563H14.253z"/>
</g>
<g>
</g>
<g>
</g>
<g>
</g>
<g>
</g>
<g>
</g>
<g>
</g>
<g>
</g>
<g>
</g>
<g>
</g>
<g>
</g>
<g>
</g>
<g>
</g>
<g>
</g>
<g>
</g>
<g>
</g>
</svg>
